<?xml version="1.0" encoding="UTF-8"?>
<svg id="Layer_1" data-name="Layer 1" xmlns="http://www.w3.org/2000/svg" viewBox="0 0 326.7 120.05">
  <defs>
    <style>
      .cls-1 {
        fill: #1d3a6a;
      }

      .cls-1, .cls-2 {
        stroke-width: 0px;
      }

      .cls-2 {
        fill: #3bbce8;
      }
    </style>
  </defs>
  <g>
    <path class="cls-2" d="m47.81,46.62c0-1.58,1.19-2.8,2.72-2.8s2.72,1.23,2.72,2.8-1.19,2.8-2.72,2.8-2.72-1.23-2.72-2.8Z"/>
    <path class="cls-2" d="m36.07,25.59c0-1.58,1.19-2.8,2.72-2.8s2.72,1.23,2.72,2.8-1.19,2.8-2.72,2.8-2.72-1.23-2.72-2.8Z"/>
    <path class="cls-2" d="m12.25,25.59c0-1.58,1.19-2.8,2.72-2.8s2.72,1.23,2.72,2.8-1.19,2.8-2.72,2.8-2.72-1.23-2.72-2.8Z"/>
    <path class="cls-2" d="m.34,46.62c0-1.58,1.19-2.8,2.72-2.8s2.72,1.23,2.72,2.8-1.19,2.8-2.72,2.8-2.72-1.23-2.72-2.8Z"/>
    <path class="cls-2" d="m12.25,67.65c0-1.58,1.19-2.8,2.72-2.8s2.72,1.23,2.72,2.8-1.19,2.8-2.72,2.8-2.72-1.23-2.72-2.8Z"/>
    <path class="cls-2" d="m36.07,67.65c0-1.58,1.19-2.8,2.72-2.8s2.72,1.23,2.72,2.8-1.19,2.8-2.72,2.8-2.72-1.23-2.72-2.8Z"/>
    <path class="cls-2" d="m22.8,46.62c0-2.28,1.87-4.21,4.08-4.21s4.08,1.93,4.08,4.21-1.87,4.21-4.08,4.21c-2.21,0-4.08-1.93-4.08-4.21Z"/>
    <path class="cls-2" d="m11.57,39.61c0-1.93,1.53-3.51,3.4-3.51s3.4,1.58,3.4,3.51-1.53,3.51-3.4,3.51-3.4-1.58-3.4-3.51h0Z"/>
    <path class="cls-2" d="m23.48,32.6c0-1.93,1.53-3.51,3.4-3.51s3.4,1.58,3.4,3.51-1.53,3.51-3.4,3.51-3.4-1.58-3.4-3.51Z"/>
    <path class="cls-2" d="m35.39,39.61c0-1.93,1.53-3.51,3.4-3.51s3.4,1.58,3.4,3.51-1.53,3.51-3.4,3.51-3.4-1.58-3.4-3.51h0Z"/>
    <path class="cls-2" d="m11.57,53.63c0-1.93,1.53-3.51,3.4-3.51s3.4,1.58,3.4,3.51-1.53,3.51-3.4,3.51-3.4-1.58-3.4-3.51Z"/>
    <path class="cls-2" d="m23.48,60.64c0-1.93,1.53-3.51,3.4-3.51s3.4,1.58,3.4,3.51-1.53,3.51-3.4,3.51-3.4-1.58-3.4-3.51Z"/>
    <path class="cls-2" d="m35.39,53.63c0-1.93,1.53-3.51,3.4-3.51s3.4,1.58,3.4,3.51-1.53,3.51-3.4,3.51-3.4-1.58-3.4-3.51Z"/>
    <path class="cls-2" d="m48.49,60.64c0-1.23.85-2.1,2.04-2.1s2.04.88,2.04,2.1-.85,2.1-2.04,2.1-2.04-.88-2.04-2.1Z"/>
    <path class="cls-2" d="m24.84,74.66c0-1.23.85-2.1,2.04-2.1s2.04.88,2.04,2.1-.85,2.1-2.04,2.1-2.04-.88-2.04-2.1Z"/>
    <path class="cls-2" d="m48.49,32.6c0-1.23.85-2.1,2.04-2.1s2.04.88,2.04,2.1-.85,2.1-2.04,2.1-2.04-.88-2.04-2.1Z"/>
    <path class="cls-2" d="m24.84,18.58c0-1.23.85-2.1,2.04-2.1s2.04.88,2.04,2.1-.85,2.1-2.04,2.1c-1.19,0-2.04-1.05-2.04-2.1h0Z"/>
    <path class="cls-2" d="m1.02,32.6c0-1.23.85-2.1,2.04-2.1s2.04.88,2.04,2.1-.85,2.1-2.04,2.1-2.04-.88-2.04-2.1Z"/>
    <path class="cls-2" d="m1.02,60.64c0-1.23.85-2.1,2.04-2.1s2.04.88,2.04,2.1-.85,2.1-2.04,2.1-2.04-.88-2.04-2.1Z"/>
  </g>
  <path id="id-D6z1nYkh6" class="cls-1" d="m118.6,22.96h-37.09v3.68h27.91l-29.61,43.64h39.99v-3.68h-30.46l29.27-43.64Zm20.59,12.79h0c3.23,0,5.62.53,7.49,1.4s3.06,2.1,3.91,3.68,1.36,3.15,1.36,5.08c.17,1.93.17,3.86.17,5.96h0v18.4h-5.27v-3.33c-1.19,1.23-2.89,2.28-4.93,2.98s-3.91,1.05-5.96,1.05h0c-1.87,0-3.57-.35-4.93-1.05-1.53-.7-2.72-1.58-3.57-2.63-1.02-1.05-1.7-2.28-2.21-3.68-.51-1.4-.68-2.8-.68-4.21h0c0-1.4.34-2.8.85-4.38.51-1.4,1.36-2.8,2.38-3.86s2.38-2.1,3.91-2.8c1.53-.7,3.23-1.05,5.27-1.05h0c2.04,0,3.91.35,5.62,1.23,1.7.7,3.23,1.93,4.42,3.33h0v-2.98c0-3.68-.51-6.48-1.53-8.24s-3.06-2.63-5.96-2.63h0c-1.19,0-2.38.18-3.23.53s-1.7.7-2.55,1.4-1.36,1.23-2.04,2.1c-.68.88-1.19,1.75-1.87,2.8h0l-3.4-3.51c.68-.7,1.19-1.4,1.87-2.1s1.53-1.23,2.55-1.75,2.21-1.05,3.57-1.4c1.19-.18,2.72-.35,4.76-.35Zm7.49,26.29v-5.26c-.17-.53-.51-1.23-1.02-1.93-.34-.7-1.02-1.4-1.53-2.1-.68-.7-1.53-1.23-2.38-1.75s-2.04-.7-3.23-.7h0c-1.19,0-2.38.18-3.57.7-1.02.53-1.87,1.23-2.72,2.1-.68.88-1.36,1.75-1.7,2.98-.34,1.05-.51,2.28-.51,3.51h0c0,1.4.17,2.63.68,3.68s1.19,1.93,1.87,2.63c.85.7,1.7,1.23,2.55,1.58,1.02.35,1.87.53,2.72.53h0c.85,0,1.7-.18,2.55-.53.85-.35,1.7-.7,2.38-1.4.85-.53,1.53-1.23,2.04-1.93s1.53-1.05,1.87-2.1h0Zm15.82,8.24h5.62v-19.28c0-.88,0-1.93.17-3.15s.51-2.63,1.02-3.86,1.36-2.45,2.55-3.33,2.72-1.4,4.76-1.4h0c1.53,0,2.72.35,3.4,1.05.85.7,1.36,1.58,1.87,2.45.34,1.05.68,2.1.68,3.15s.17,2.1.17,2.8h0v21.56h5.62v-19.28c0-1.05.17-2.1.34-3.51.17-1.4.51-2.63,1.19-3.86s1.36-2.28,2.55-3.15c1.02-.88,2.55-1.23,4.42-1.23h0c1.36,0,2.38.18,3.23.53s1.53,1.05,1.87,1.75c.51.88.85,1.75.85,2.98.17,1.23.17,2.45.17,4.03h0v21.56h5.62v-23.49c0-1.05-.17-2.28-.34-3.51-.17-1.23-.68-2.45-1.36-3.51-.68-1.05-1.7-2.1-3.23-2.8s-3.23-1.05-5.44-1.05h0c-.68,0-1.36,0-2.38.18-.85.18-1.87.35-2.72.88s-1.87,1.05-2.72,1.93-1.7,1.93-2.38,3.33h-.51c-.34-.7-.68-1.4-1.19-2.28-.51-.7-1.02-1.4-1.87-2.1-.68-.7-1.7-1.23-2.72-1.58s-2.21-.53-3.74-.53h0c-.68,0-1.53,0-2.38.18s-1.87.53-2.72.88c-.85.53-1.87,1.05-2.55,1.93-.85.88-1.53,1.93-2.04,3.15h-.34v-5.43h-5.62v34h.17Zm68.74-34.53h0c3.23,0,5.62.53,7.49,1.4,1.7.88,3.06,2.1,3.91,3.68s1.36,3.15,1.36,5.08c.17,1.93.17,3.86.17,5.96h0v18.4h-5.27v-3.33c-1.19,1.23-2.89,2.28-4.93,2.98s-3.91,1.05-5.96,1.05h0c-1.87,0-3.57-.35-4.93-1.05-1.53-.7-2.72-1.58-3.57-2.63s-1.7-2.28-2.21-3.68c-.51-1.4-.68-2.8-.68-4.21h0c0-1.4.34-2.8.85-4.38.51-1.4,1.36-2.8,2.38-3.86s2.38-2.1,3.91-2.8c1.53-.7,3.23-1.05,5.27-1.05h0c2.04,0,3.91.35,5.62,1.23,1.7.7,3.23,1.93,4.42,3.33h0v-2.98c0-3.68-.51-6.48-1.53-8.24s-3.06-2.63-5.96-2.63h0c-1.19,0-2.38.18-3.23.53s-1.7.7-2.55,1.4-1.36,1.23-2.04,2.1-1.19,1.75-1.87,2.8h0l-3.4-3.51c.68-.7,1.19-1.4,1.87-2.1.68-.7,1.53-1.23,2.55-1.75s2.21-1.05,3.57-1.4c1.19-.18,2.89-.35,4.76-.35Zm7.66,26.29v-5.26c-.17-.53-.51-1.23-1.02-1.93s-1.02-1.4-1.53-2.1c-.68-.7-1.53-1.23-2.38-1.75s-2.04-.7-3.23-.7h0c-1.19,0-2.38.18-3.57.7-1.02.53-1.87,1.23-2.72,2.1s-1.36,1.75-1.7,2.98-.51,2.28-.51,3.51h0c0,1.4.17,2.63.68,3.68.51,1.05,1.19,1.93,1.87,2.63s1.7,1.23,2.55,1.58c1.02.35,1.87.53,2.72.53h0c.85,0,1.7-.18,2.55-.53.85-.35,1.7-.7,2.38-1.4s1.53-1.23,2.04-1.93c.85-.35,1.36-1.05,1.87-2.1h0Zm45.09-25.59v50.65h-5.62v-22.43h-.34c-.51,1.23-1.02,2.1-1.7,2.98s-1.53,1.4-2.55,1.93c-.85.53-1.87.88-2.89,1.05-1.02.18-2.04.35-3.06.35h0c-2.21,0-4.25-.35-6.13-1.23s-3.4-1.93-4.76-3.51-2.38-3.33-3.06-5.61c-.68-2.1-1.19-4.56-1.19-7.19h0c0-2.63.34-5.08,1.19-7.36.68-2.1,1.87-4.03,3.06-5.61s2.89-2.8,4.76-3.51c1.87-.88,3.91-1.23,6.13-1.23h0c5.27,0,8.68,2.1,10.21,6.13h.34v-5.43s5.62,0,5.62,0Zm-5.62,19.45v-5.96c0-1.4-.17-2.98-.68-4.21-.51-1.4-1.19-2.45-1.87-3.51-.85-1.05-1.7-1.75-2.89-2.28s-2.38-.88-3.57-.88h0c-1.36,0-2.72.18-3.91.7-1.19.53-2.38,1.4-3.23,2.45-.85,1.05-1.7,2.63-2.21,4.38s-.85,4.03-.85,6.48h0c0,2.63.34,4.73.85,6.48s1.36,3.33,2.21,4.38c1.02,1.23,2.04,1.93,3.23,2.45s2.55.7,3.91.7h0c1.19,0,2.38-.18,3.57-.7,1.02-.53,2.04-1.23,2.89-2.28.85-1.05,1.53-2.28,2.04-3.68.17-1.05.51-2.8.51-4.56h0Zm48.32-2.45h0c0,2.28-.34,4.56-1.19,6.66s-1.87,4.03-3.4,5.61c-1.53,1.58-3.23,2.98-5.27,3.86-2.04.88-4.42,1.4-6.98,1.4h0c-2.55,0-4.93-.53-7.15-1.4-2.21-1.05-3.91-2.28-5.44-3.86-1.53-1.58-2.55-3.51-3.4-5.61s-1.19-4.38-1.19-6.66h0c0-2.28.34-4.56,1.19-6.66s1.87-4.03,3.4-5.61,3.23-2.98,5.44-3.86c2.21-1.05,4.59-1.4,7.15-1.4h0c2.55,0,4.93.53,6.98,1.4,2.04,1.05,3.91,2.28,5.27,3.86,1.53,1.58,2.55,3.51,3.4,5.61.68,2.1,1.19,4.38,1.19,6.66Zm-6.3,0h0c0-3.15-.34-5.78-1.02-7.71-.68-1.93-1.53-3.51-2.55-4.56s-2.21-1.75-3.57-2.28-2.55-.53-3.74-.53h0c-1.19,0-2.38.18-3.74.53-1.19.35-2.38,1.05-3.57,2.28-1.02,1.05-1.87,2.63-2.55,4.56s-1.02,4.56-1.02,7.71h0c0,3.15.34,5.61,1.02,7.54.68,1.93,1.53,3.51,2.55,4.56s2.21,1.75,3.57,2.28c1.19.35,2.55.53,3.74.53h0c1.19,0,2.38-.18,3.74-.53s2.38-1.05,3.57-2.28c1.02-1.05,1.87-2.63,2.55-4.56s1.02-4.38,1.02-7.54Z"/>
  <rect class="cls-1" x="65.68" width="4.42" height="90.61"/>
  <g>
    <path class="cls-1" d="m0,114.97l.85-1.93c1.02.88,2.55,1.4,4.25,1.4,2.04,0,2.89-.7,2.89-1.75,0-2.8-7.49-1.05-7.49-5.78,0-2.1,1.7-3.86,5.1-3.86,1.53,0,3.06.35,4.25,1.23l-.68,1.93c-1.19-.7-2.38-1.05-3.57-1.05-2.04,0-2.72.7-2.72,1.75,0,2.8,7.49,1.05,7.49,5.78,0,2.1-1.7,3.86-5.1,3.86-2.21,0-4.25-.7-5.27-1.58Z"/>
    <path class="cls-1" d="m11.91,111.47c0-2.98,2.21-5.08,5.1-5.08,3.06,0,5.1,2.1,5.1,5.08s-2.21,5.08-5.1,5.08c-3.06,0-5.1-2.28-5.1-5.08Zm8,0c0-1.93-1.19-3.15-2.89-3.15s-2.89,1.23-2.89,3.15,1.19,3.15,2.89,3.15c1.7-.18,2.89-1.4,2.89-3.15Z"/>
    <path class="cls-1" d="m27.22,105.86v.53h2.72v1.93h-2.55v8.06h-2.21v-8.06h-1.53v-1.93h1.53v-.7c0-2.1,1.19-3.51,3.4-3.51.85,0,1.53.18,2.04.53l-.68,1.75c-.34-.18-.85-.35-1.19-.35-1.02.18-1.53.7-1.53,1.75Z"/>
    <path class="cls-1" d="m37.77,115.85c-.51.53-1.36.7-2.21.7-2.04,0-3.4-1.23-3.4-3.33v-4.73h-1.53v-1.93h1.53v-2.28h2.21v2.28h2.55v1.93h-2.55v4.73c0,1.05.51,1.4,1.36,1.4.51,0,.85-.18,1.19-.35l.85,1.58Z"/>
    <path class="cls-1" d="m54.96,106.38l-3.57,9.99h-2.21l-2.55-6.84-2.55,6.84h-2.04l-3.57-9.99h2.21l2.55,7.36,2.72-7.36h1.87l2.55,7.36,2.55-7.36h2.04Z"/>
    <path class="cls-1" d="m64.83,110.59v5.78h-2.21v-1.23c-.51.88-1.53,1.4-3.06,1.4-2.21,0-3.57-1.23-3.57-2.98,0-1.58,1.02-2.98,4.08-2.98h2.38v-.18c0-1.4-.85-2.1-2.38-2.1-1.02,0-2.21.35-2.89,1.05l-.85-1.75c1.02-.88,2.55-1.23,4.08-1.23,2.72,0,4.42,1.23,4.42,4.21Zm-2.38,2.63v-1.23h-2.38c-1.53,0-2.04.53-2.04,1.4s.68,1.4,1.87,1.4c1.19,0,2.21-.53,2.55-1.58Z"/>
    <path class="cls-1" d="m73.68,106.38v2.28h-.51c-1.7,0-2.89,1.05-2.89,2.98v4.73h-2.21v-9.99h2.21v1.4c.68-.88,1.87-1.4,3.4-1.4Z"/>
    <path class="cls-1" d="m85.08,112.17h-7.66c.34,1.4,1.53,2.45,3.06,2.45,1.02,0,1.87-.35,2.55-1.05l1.19,1.4c-.85,1.05-2.21,1.58-3.91,1.58-3.23,0-5.27-2.1-5.27-5.08s2.04-5.08,4.93-5.08,4.93,2.1,4.93,5.08c.17.18.17.35.17.7Zm-7.66-1.58h5.44c-.17-1.4-1.19-2.45-2.72-2.45-1.36,0-2.55,1.05-2.72,2.45Z"/>
    <path class="cls-1" d="m95.97,105.33h-4.25v-2.1h10.72v2.1h-4.25v11.04h-2.38v-11.04h.17Z"/>
    <path class="cls-1" d="m112.64,112.17h-7.66c.34,1.4,1.53,2.45,3.06,2.45,1.02,0,1.87-.35,2.55-1.05l1.19,1.4c-.85,1.05-2.21,1.58-3.91,1.58-3.23,0-5.27-2.1-5.27-5.08s2.04-5.08,4.93-5.08,4.93,2.1,4.93,5.08c.17.18.17.35.17.7Zm-7.66-1.58h5.44c-.17-1.4-1.19-2.45-2.72-2.45s-2.55,1.05-2.72,2.45Z"/>
    <path class="cls-1" d="m114.17,115.32l.85-1.75c.85.53,2.21,1.05,3.4,1.05,1.36,0,2.04-.35,2.04-1.05,0-1.93-5.96-.18-5.96-4.03,0-1.93,1.7-3.15,4.25-3.15,1.36,0,2.72.35,3.57.88l-.85,1.75c-1.02-.7-1.87-.88-2.89-.88-1.36,0-2.04.53-2.04,1.05,0,1.93,5.96.18,5.96,4.03,0,1.93-1.7,3.15-4.42,3.15-1.53.18-3.06-.35-3.91-1.05Z"/>
    <path class="cls-1" d="m130.85,115.85c-.51.53-1.36.7-2.21.7-2.04,0-3.4-1.23-3.4-3.33v-4.73h-1.53v-1.93h1.53v-2.28h2.21v2.28h2.55v1.93h-2.55v4.73c0,1.05.51,1.4,1.36,1.4.51,0,.85-.18,1.19-.35l.85,1.58Z"/>
    <path class="cls-1" d="m141.91,112.17h-7.66c.34,1.4,1.53,2.45,3.06,2.45,1.02,0,1.87-.35,2.55-1.05l1.19,1.4c-.85,1.05-2.21,1.58-3.91,1.58-3.23,0-5.27-2.1-5.27-5.08s2.04-5.08,4.93-5.08,4.93,2.1,4.93,5.08c.17.18.17.35.17.7Zm-7.66-1.58h5.44c-.17-1.4-1.19-2.45-2.72-2.45-1.36,0-2.55,1.05-2.72,2.45Z"/>
    <path class="cls-1" d="m153.99,102.53v13.85h-2.21v-1.23c-.68.88-1.87,1.4-3.23,1.4-2.89,0-4.93-1.93-4.93-5.08s2.04-5.08,4.93-5.08c1.19,0,2.38.35,3.06,1.4v-5.08h2.38v-.18Zm-2.21,8.94c0-1.93-1.19-3.15-2.89-3.15s-2.89,1.23-2.89,3.15,1.19,3.15,2.89,3.15,2.89-1.4,2.89-3.15Z"/>
    <path class="cls-1" d="m163.01,102.53h2.04v17.35h-2.04v-17.35Z"/>
    <path class="cls-1" d="m187.85,117.6c-.85,1.05-2.04,1.58-3.23,1.58-1.7,0-3.06-.7-4.93-2.63-3.57-.35-6.13-2.98-6.13-6.66s2.89-6.66,6.81-6.66,6.81,2.8,6.81,6.66c0,3.15-1.87,5.61-4.76,6.48.68.88,1.36,1.05,2.04,1.05.85,0,1.53-.35,2.21-1.05l1.19,1.23Zm-7.49-3.15c2.55,0,4.42-1.93,4.42-4.56s-1.87-4.56-4.42-4.56-4.42,1.93-4.42,4.56,1.87,4.56,4.42,4.56Z"/>
    <path class="cls-1" d="m199.25,106.38v9.99h-2.21v-1.23c-.68.88-1.87,1.4-3.06,1.4-2.55,0-4.08-1.4-4.08-4.38v-5.78h2.21v5.43c0,1.75.85,2.63,2.21,2.63,1.53,0,2.72-1.05,2.72-2.98v-5.08h2.21Z"/>
    <path class="cls-1" d="m210.82,110.59v5.78h-2.21v-1.23c-.51.88-1.53,1.4-3.06,1.4-2.21,0-3.57-1.23-3.57-2.98,0-1.58,1.02-2.98,4.08-2.98h2.55v-.18c0-1.4-.85-2.1-2.38-2.1-1.02,0-2.21.35-2.89,1.05l-.85-1.75c1.02-.88,2.55-1.23,4.08-1.23,2.55,0,4.25,1.23,4.25,4.21Zm-2.21,2.63v-1.23h-2.38c-1.53,0-1.87.53-1.87,1.4s.68,1.4,1.87,1.4c1.02,0,1.87-.53,2.38-1.58Z"/>
    <path class="cls-1" d="m214.23,102.53h2.21v13.85h-2.21v-13.85Z"/>
    <path class="cls-1" d="m219.5,103.4c0-.7.68-1.4,1.53-1.4s1.53.53,1.53,1.4-.68,1.4-1.53,1.4c-.85,0-1.53-.7-1.53-1.4Zm.34,2.98h2.21v9.99h-2.21v-9.99Z"/>
    <path class="cls-1" d="m231.41,115.85c-.51.53-1.36.7-2.21.7-2.04,0-3.4-1.23-3.4-3.33v-4.73h-1.53v-1.93h1.53v-2.28h2.21v2.28h2.55v1.93h-2.55v4.73c0,1.05.51,1.4,1.36,1.4.51,0,.85-.18,1.19-.35l.85,1.58Z"/>
    <path class="cls-1" d="m242.47,106.38l-4.59,10.69c-.85,2.28-2.04,2.98-3.74,2.98-1.02,0-2.04-.35-2.55-.88l.85-1.75c.51.35,1.02.7,1.7.7.85,0,1.19-.35,1.7-1.4l.17-.35-4.25-9.99h2.38l3.06,7.36,3.06-7.36h2.21Z"/>
    <path class="cls-1" d="m258.3,113.39h-6.3l-1.19,2.98h-2.38l5.79-12.97h2.38l5.79,12.97h-2.38l-1.7-2.98Zm-.85-1.93l-2.38-5.61-2.38,5.61h4.76Z"/>
    <path class="cls-1" d="m262.72,115.32l.85-1.75c.85.53,2.21,1.05,3.4,1.05,1.36,0,2.04-.35,2.04-1.05,0-1.93-5.96-.18-5.96-4.03,0-1.93,1.7-3.15,4.25-3.15,1.36,0,2.72.35,3.57.88l-.85,1.75c-.85-.53-1.87-.7-2.72-.7-1.36,0-2.04.53-2.04,1.05,0,1.93,5.96.18,5.96,4.03,0,1.93-1.7,3.15-4.42,3.15-1.7,0-3.23-.53-4.08-1.23Z"/>
    <path class="cls-1" d="m272.42,115.32l.85-1.75c.85.53,2.21,1.05,3.4,1.05,1.36,0,2.04-.35,2.04-1.05,0-1.93-5.96-.18-5.96-4.03,0-1.93,1.7-3.15,4.25-3.15,1.36,0,2.72.35,3.57.88l-.85,1.75c-.85-.53-1.87-.7-2.72-.7-1.36,0-2.04.53-2.04,1.05,0,1.93,5.96.18,5.96,4.03,0,1.93-1.7,3.15-4.42,3.15-1.53,0-3.23-.53-4.08-1.23Z"/>
    <path class="cls-1" d="m292.67,106.38v9.99h-2.21v-1.23c-.68.88-1.87,1.4-3.06,1.4-2.55,0-4.08-1.4-4.08-4.38v-5.78h2.21v5.43c0,1.75.85,2.63,2.21,2.63,1.53,0,2.72-1.05,2.72-2.98v-5.08h2.21Z"/>
    <path class="cls-1" d="m301.69,106.38v2.28h-.51c-1.7,0-2.89,1.05-2.89,2.98v4.73h-2.21v-9.99h2.21v1.4c.68-.88,1.87-1.4,3.4-1.4Z"/>
    <path class="cls-1" d="m313.09,112.17h-7.66c.34,1.4,1.53,2.45,3.06,2.45,1.02,0,1.87-.35,2.55-1.05l1.19,1.4c-.85,1.05-2.21,1.58-3.91,1.58-3.23,0-5.27-2.1-5.27-5.08s2.04-5.08,4.93-5.08,4.93,2.1,4.93,5.08c.17.18.17.35.17.7Zm-7.66-1.58h5.44c-.17-1.4-1.19-2.45-2.72-2.45-1.36,0-2.55,1.05-2.72,2.45Z"/>
    <path class="cls-1" d="m325.17,102.53v13.85h-2.21v-1.23c-.68.88-1.87,1.4-3.23,1.4-2.89,0-4.93-1.93-4.93-5.08s2.04-5.08,4.93-5.08c1.19,0,2.38.35,3.06,1.4v-5.08h2.38v-.18Zm-2.21,8.94c0-1.93-1.19-3.15-2.89-3.15s-2.89,1.23-2.89,3.15,1.19,3.15,2.89,3.15c1.7-.18,2.89-1.4,2.89-3.15Z"/>
  </g>
</svg>